<mxfile host="app.diagrams.net" modified="2024-05-24T02:48:19.622Z" agent="Mozilla/5.0 (X11; Linux x86_64) AppleWebKit/537.36 (KHTML, like Gecko) Chrome/108.0.0.0 Safari/537.36" version="24.0.7" etag="VrKtCTrw-JVEi3aTdFg_" type="github">
  <diagram name="Page-1" id="OvN0lvTQjg8fujcEbBTU">
    <mxGraphModel>
      <root>
        <mxCell id="0" />
        <mxCell id="1" parent="0" />
      </root>
    </mxGraphModel>
  </diagram>
</mxfile>
